<svg xmlns="http://www.w3.org/2000/svg" viewBox="0 0 960 360" width="960" height="360">
<rect width="960" height="360" rx="14" fill="#0c1324"/>
<text x="28.0" y="38.0" font-family="-apple-system,BlinkMacSystemFont,Inter,Segoe UI,Roboto,sans-serif" font-size="19" fill="#e6ecff" text-anchor="start" font-weight="700">Battery: theirs by accident, ours by plan</text>
<text x="28.0" y="62.0" font-family="-apple-system,BlinkMacSystemFont,Inter,Segoe UI,Roboto,sans-serif" font-size="13" fill="#8a97b8" text-anchor="start" font-weight="400">One graded run (seed 2). Below the dashed line a node sits the round out. naive-max runs under even-split: same device, near-identical drain.</text>
<line x1="56" x2="810" y1="320.0" y2="320.0" stroke="#1d2742"/>
<text x="46.0" y="324.0" font-family="ui-monospace,SFMono-Regular,Menlo,Consolas,monospace" font-size="11" fill="#56627f" text-anchor="end" font-weight="400">0.00</text>
<line x1="56" x2="810" y1="261.0" y2="261.0" stroke="#1d2742"/>
<text x="46.0" y="265.0" font-family="ui-monospace,SFMono-Regular,Menlo,Consolas,monospace" font-size="11" fill="#56627f" text-anchor="end" font-weight="400">0.25</text>
<line x1="56" x2="810" y1="202.0" y2="202.0" stroke="#1d2742"/>
<text x="46.0" y="206.0" font-family="ui-monospace,SFMono-Regular,Menlo,Consolas,monospace" font-size="11" fill="#56627f" text-anchor="end" font-weight="400">0.50</text>
<line x1="56" x2="810" y1="143.0" y2="143.0" stroke="#1d2742"/>
<text x="46.0" y="147.0" font-family="ui-monospace,SFMono-Regular,Menlo,Consolas,monospace" font-size="11" fill="#56627f" text-anchor="end" font-weight="400">0.75</text>
<line x1="56" x2="810" y1="84.0" y2="84.0" stroke="#1d2742"/>
<text x="46.0" y="88.0" font-family="ui-monospace,SFMono-Regular,Menlo,Consolas,monospace" font-size="11" fill="#56627f" text-anchor="end" font-weight="400">1.00</text>
<text x="56.0" y="344.0" font-family="ui-monospace,SFMono-Regular,Menlo,Consolas,monospace" font-size="11" fill="#56627f" text-anchor="middle" font-weight="400">0</text>
<text x="181.7" y="344.0" font-family="ui-monospace,SFMono-Regular,Menlo,Consolas,monospace" font-size="11" fill="#56627f" text-anchor="middle" font-weight="400">10</text>
<text x="307.3" y="344.0" font-family="ui-monospace,SFMono-Regular,Menlo,Consolas,monospace" font-size="11" fill="#56627f" text-anchor="middle" font-weight="400">20</text>
<text x="433.0" y="344.0" font-family="ui-monospace,SFMono-Regular,Menlo,Consolas,monospace" font-size="11" fill="#56627f" text-anchor="middle" font-weight="400">30</text>
<text x="558.7" y="344.0" font-family="ui-monospace,SFMono-Regular,Menlo,Consolas,monospace" font-size="11" fill="#56627f" text-anchor="middle" font-weight="400">40</text>
<text x="684.3" y="344.0" font-family="ui-monospace,SFMono-Regular,Menlo,Consolas,monospace" font-size="11" fill="#56627f" text-anchor="middle" font-weight="400">50</text>
<text x="810.0" y="344.0" font-family="ui-monospace,SFMono-Regular,Menlo,Consolas,monospace" font-size="11" fill="#56627f" text-anchor="middle" font-weight="400">60</text>
<line x1="56.0" x2="810.0" y1="308.2" y2="308.2" stroke="#ff5c6c" stroke-dasharray="5 5" opacity="0.8"/>
<polyline points="68.6,131.4 81.1,163.2 93.7,195.7 106.3,243.4 118.8,266.8 131.4,286.9 144.0,317.1 156.5,265.1 169.1,317.7 181.7,265.8 194.2,320.0 206.8,268.1 219.4,320.0 231.9,268.1 244.5,303.0 257.1,320.0 269.6,268.1 282.2,320.0 294.8,268.1 307.3,309.6 319.9,257.6 332.5,320.0 345.0,268.1 357.6,320.0 370.2,268.1 382.7,320.0 395.3,268.1 407.9,315.7 420.4,263.8 433.0,318.0 445.6,266.1 458.1,296.7 470.7,320.0 483.3,268.1 495.8,320.0 508.4,268.1 521.0,293.3 533.5,320.0 546.1,268.1 558.7,320.0 571.2,268.1 583.8,320.0 596.4,268.1 608.9,320.0 621.5,268.1 634.1,320.0 646.6,268.1 659.2,301.3 671.8,320.0 684.3,268.1 696.9,320.0 709.5,268.1 722.0,320.0 734.6,268.1 747.2,316.4 759.7,264.5 772.3,304.5 784.9,320.0 797.4,268.1 810.0,320.0" fill="none" stroke="#f04e7e" stroke-width="1.6" stroke-linejoin="round" stroke-linecap="round"/>
<polyline points="68.6,130.4 81.1,159.6 93.7,201.5 106.3,230.5 118.8,253.4 131.4,279.1 144.0,312.5 156.5,260.6 169.1,292.0 181.7,320.0 194.2,268.1 206.8,314.2 219.4,262.3 231.9,303.9 244.5,320.0 257.1,268.1 269.6,313.6 282.2,261.7 294.8,310.3 307.3,258.4 319.9,319.1 332.5,267.2 345.0,320.0 357.6,268.1 370.2,320.0 382.7,268.1 395.3,311.4 407.9,259.5 420.4,309.1 433.0,257.2 445.6,288.7 458.1,320.0 470.7,268.1 483.3,310.9 495.8,259.0 508.4,296.0 521.0,320.0 533.5,268.1 546.1,317.1 558.7,265.2 571.2,320.0 583.8,268.1 596.4,315.4 608.9,263.5 621.5,311.2 634.1,259.3 646.6,292.0 659.2,320.0 671.8,268.1 684.3,320.0 696.9,268.1 709.5,313.2 722.0,261.3 734.6,294.2 747.2,320.0 759.7,268.1 772.3,297.5 784.9,320.0 797.4,268.1 810.0,300.5" fill="none" stroke="#c88100" stroke-width="1.6" stroke-linejoin="round" stroke-linecap="round"/>
<polyline points="68.6,130.5 81.1,159.7 93.7,201.8 106.3,230.8 118.8,253.7 131.4,279.5 144.0,313.0 156.5,261.1 169.1,292.5 181.7,320.0 194.2,268.1 206.8,314.3 219.4,262.4 231.9,304.2 244.5,320.0 257.1,268.1 269.6,313.7 282.2,261.8 294.8,310.5 307.3,258.6 319.9,319.5 332.5,267.6 345.0,320.0 357.6,268.1 370.2,320.0 382.7,268.1 395.3,311.5 407.9,259.6 420.4,309.4 433.0,257.5 445.6,289.0 458.1,320.0 470.7,268.1 483.3,311.0 495.8,259.1 508.4,296.2 521.0,320.0 533.5,268.1 546.1,317.2 558.7,265.3 571.2,320.0 583.8,268.1 596.4,315.5 608.9,263.6 621.5,311.5 634.1,259.6 646.6,292.3 659.2,320.0 671.8,268.1 684.3,320.0 696.9,268.1 709.5,313.3 722.0,261.4 734.6,294.4 747.2,320.0 759.7,268.1 772.3,297.5 784.9,320.0 797.4,268.1 810.0,300.6" fill="none" stroke="#9f78e9" stroke-width="1.6" stroke-linejoin="round" stroke-linecap="round"/>
<polyline points="68.6,114.3 81.1,126.3 93.7,139.6 106.3,153.2 118.8,161.4 131.4,166.8 144.0,181.4 156.5,283.5 169.1,293.6 181.7,307.3 194.2,320.0 206.8,268.1 219.4,284.4 231.9,296.4 244.5,306.8 257.1,320.0 269.6,268.1 282.2,285.6 294.8,306.6 307.3,320.0 319.9,268.1 332.5,291.3 345.0,307.3 357.6,320.0 370.2,268.1 382.7,294.6 395.3,307.0 407.9,320.0 420.4,268.1 433.0,306.6 445.6,320.0 458.1,268.1 470.7,292.2 483.3,299.4 495.8,320.0 508.4,268.1 521.0,276.4 533.5,293.6 546.1,307.6 558.7,320.0 571.2,268.1 583.8,293.4 596.4,306.9 608.9,320.0 621.5,268.1 634.1,306.4 646.6,320.0 659.2,268.1 671.8,292.2 684.3,307.0 696.9,320.0 709.5,268.1 722.0,285.6 734.6,298.1 747.2,307.3 759.7,320.0 772.3,268.1 784.9,305.2 797.4,320.0 810.0,268.1" fill="none" stroke="#00a6c1" stroke-width="3.0" stroke-linejoin="round" stroke-linecap="round"/>
<rect x="820.0" y="263.1" width="10" height="3" rx="1.5" fill="#00a6c1"/>
<text x="835.0" y="272.1" font-family="-apple-system,BlinkMacSystemFont,Inter,Segoe UI,Roboto,sans-serif" font-size="12" fill="#e6ecff" text-anchor="start" font-weight="700">us</text>
<rect x="820.0" y="295.5" width="10" height="3" rx="1.5" fill="#c88100"/>
<text x="835.0" y="304.5" font-family="-apple-system,BlinkMacSystemFont,Inter,Segoe UI,Roboto,sans-serif" font-size="12" fill="#8a97b8" text-anchor="start" font-weight="400">naive-max</text>
<rect x="820.0" y="310.5" width="10" height="3" rx="1.5" fill="#9f78e9"/>
<text x="835.0" y="319.5" font-family="-apple-system,BlinkMacSystemFont,Inter,Segoe UI,Roboto,sans-serif" font-size="12" fill="#8a97b8" text-anchor="start" font-weight="400">even-split</text>
<rect x="820.0" y="325.5" width="10" height="3" rx="1.5" fill="#f04e7e"/>
<text x="835.0" y="334.5" font-family="-apple-system,BlinkMacSystemFont,Inter,Segoe UI,Roboto,sans-serif" font-size="12" fill="#8a97b8" text-anchor="start" font-weight="400">proportional</text>
</svg>
